# xmcd
#
# Track frame offsets: 
#        150
#        13375
#        26213
#        37463
#        49940
#        61095
#        73785
#        87503
#        98943
#        109570
#        122785
#        136780
#        150755
#        163273
#        175238
#        187918
#        197979
#        209617
#        222381
#        234847
#        245492
#
# Disc length: 3442 seconds
#
# Revision: 0
# Processed by: cddbd v1.5.2PL0 Copyright (c) Steve Scherf et al.
# Submitted via: ExactAudioCopyFreeDBPlugin 1.0
#
DISCID=350d7015
DTITLE=Elmore James - Rollin' And Slidin'
DYEAR=2012
DGENRE=Blues
TTITLE0=Dust My Broom
TTITLE1=Shake Your Moneymaker
TTITLE2=Look Over Yonder Wall
TTITLE3=Got To Move
TTITLE4=One Way Out
TTITLE5=The Sky Is Crying
TTITLE6=Anna Lee
TTITLE7=Rollin' And Tumblin'
TTITLE8=Done Somebody Wrong
TTITLE9=Baby Please Set A Date
TTITLE10=It Hurts Me Too
TTITLE11=The Twelve Year Old Boy
TTITLE12=Cry For Me Baby
TTITLE13=Knockin' At Your Door
TTITLE14=Standing At The Crossroads
TTITLE15=Mean And Evil (the Way You Treat Me)
TTITLE16=Rock My Baby Right
TTITLE17=Hand In Hand
TTITLE18=Ealry In The Morning
TTITLE19=Hawaiian Boogie
TTITLE20=Dust My Broom (Original 1951 Studio Version)
EXTD=
EXTT0=
EXTT1=
EXTT2=
EXTT3=
EXTT4=
EXTT5=
EXTT6=
EXTT7=
EXTT8=
EXTT9=
EXTT10=
EXTT11=
EXTT12=
EXTT13=
EXTT14=
EXTT15=
EXTT16=
EXTT17=
EXTT18=
EXTT19=
EXTT20=
PLAYORDER=
